<svg width="24" height="24" viewBox="0 0 24 24" fill="none" xmlns="http://www.w3.org/2000/svg">
<path d="M7 20.4524C6.225 20.4524 5.53333 20.2857 4.925 19.9524C4.31667 19.6107 3.84167 19.1357 3.5 18.5274C3.16667 17.9191 3 17.2274 3 16.4524V6.45239C3 5.67739 3.16667 4.98573 3.5 4.37739C3.84167 3.76906 4.31667 3.29823 4.925 2.96489C5.53333 2.62323 6.225 2.45239 7 2.45239H17C17.775 2.45239 18.4667 2.62323 19.075 2.96489C19.6833 3.29823 20.1542 3.76906 20.4875 4.37739C20.8292 4.98573 21 5.67739 21 6.45239V16.4524C21 17.2274 20.8292 17.9191 20.4875 18.5274C20.1542 19.1357 19.6833 19.6107 19.075 19.9524C18.4667 20.2857 17.775 20.4524 17 20.4524H7Z" fill="#4D4D4D"/>
<path fill-rule="evenodd" clip-rule="evenodd" d="M7.95981 8.77245C8.22487 8.41907 8.72648 8.34735 9.07992 8.6123C9.43319 8.87741 9.50509 9.37903 9.24008 9.73241L7.79965 11.6523L9.24008 13.5723C9.50496 13.9257 9.43325 14.4273 9.07992 14.6924C8.72654 14.9573 8.22491 14.8854 7.95981 14.5322L6.16 12.1328C5.94667 11.8484 5.94667 11.4563 6.16 11.1719L7.95981 8.77245Z" fill="white"/>
<path fill-rule="evenodd" clip-rule="evenodd" d="M12.6844 8.89452C12.882 8.49943 13.3625 8.33957 13.7577 8.5371C14.1526 8.73474 14.3136 9.21526 14.1161 9.61034L11.7157 14.4101C11.5181 14.8051 11.0375 14.9649 10.6424 14.7676C10.2473 14.57 10.0865 14.0895 10.284 13.6943L12.6844 8.89452Z" fill="white"/>
<path fill-rule="evenodd" clip-rule="evenodd" d="M15.3202 8.6123C15.6736 8.34741 16.1752 8.41908 16.4403 8.77245L18.2401 11.1719C18.4533 11.4563 18.4534 11.8484 18.2401 12.1328L16.4403 14.5322C16.1753 14.8855 15.6736 14.9571 15.3202 14.6924C14.9667 14.4273 14.8949 13.9257 15.16 13.5723L16.5995 11.6523L15.16 9.73241C14.8949 9.37896 14.9667 8.87738 15.3202 8.6123Z" fill="white"/>
</svg>
